<?xml version="1.0" encoding="utf-8"?>
<!-- Generator: Adobe Illustrator 27.3.1, SVG Export Plug-In . SVG Version: 6.00 Build 0)  -->
<svg version="1.1" id="Layer_1" xmlns="http://www.w3.org/2000/svg" xmlns:xlink="http://www.w3.org/1999/xlink" x="0px" y="0px"
	 viewBox="0 0 442.2 193.4" style="enable-background:new 0 0 442.2 193.4;" xml:space="preserve">
<style type="text/css">
	.st0{fill:#FFFFFF;}
	.st1{fill:#40AA1D;}
	.st2{fill:#3D4647;}
</style>
<g>
	<g>
		<path class="st2" d="M221.1,109.7c2,0,3.8-0.6,5.4-1.7s2.7-2.6,3.4-4.5h5.2c-1,3.1-2.7,5.7-5.4,7.6c-2.7,2-5.9,2.9-9.7,2.9
			c-4.7,0-8.5-1.6-11.4-4.8c-2.9-3.1-4.3-7-4.3-11.7s1.4-8.6,4.3-11.7c2.9-3.2,6.8-4.8,11.4-4.8c3.8,0,7,1,9.7,2.9
			c2.6,1.9,4.4,4.5,5.4,7.6H230c-0.7-1.9-1.9-3.3-3.4-4.5s-3.4-1.7-5.4-1.7c-2,0-3.8,0.3-5.2,1c-1.5,0.6-2.7,1.5-3.6,2.6
			c-2.1,2.3-3.1,5.2-3.1,8.6c0,3.4,1,6.3,3.1,8.6C214.4,108.5,217.4,109.7,221.1,109.7z"/>
		<path class="st2" d="M257.4,81.1h0.3v4.8h-0.6c-3.4,0-6.3,1.4-8.4,4.2c-2,2.6-3.1,5.8-3.1,9.5v14h-4.8V81.6h4.8v7.9
			c1-3.3,3.3-5.7,6.6-7.3C253.7,81.4,255.5,81.1,257.4,81.1z"/>
		<path class="st2" d="M276,109.7c4.3,0,7.4-1.8,9.3-5.4h5.2c-1.1,2.9-2.9,5.2-5.2,7c-2.4,1.8-5.6,2.7-9.3,2.7
			c-4.8,0-8.7-1.6-11.8-4.8c-2.9-3.1-4.4-7-4.4-11.7c0-4.7,1.4-8.6,4.2-11.7c3-3.2,6.8-4.8,11.6-4.8s8.6,1.6,11.6,4.8
			c2.8,3.1,4.2,7,4.2,11.7v1.9h-26.8c0.3,2.9,1.5,5.4,3.5,7.3C270.2,108.7,272.9,109.7,276,109.7z M275.6,85.4
			c-2.9,0-5.4,0.9-7.4,2.7c-1.9,1.7-3,4-3.4,6.8h21.7c-0.4-2.8-1.6-5.1-3.4-6.8C281,86.3,278.5,85.4,275.6,85.4z"/>
		<path class="st2" d="M311.5,81.1c4.8,0,8.6,1.6,11.6,4.8c2.8,3.1,4.2,7,4.2,11.7c0,4.7-1.4,8.6-4.2,11.7c-3,3.2-6.8,4.8-11.6,4.8
			s-8.6-1.6-11.6-4.8c-2.8-3.1-4.2-7-4.2-11.7c0-4.7,1.4-8.6,4.2-11.7C302.9,82.7,306.7,81.1,311.5,81.1z M311.5,109.7
			c3.4,0,6.2-1.2,8.2-3.6c1.9-2.2,2.9-5.1,2.9-8.6c0-3.4-1-6.3-2.9-8.6c-2-2.4-4.7-3.6-8.2-3.6s-6.2,1.2-8.2,3.6
			c-1.9,2.2-2.9,5.1-2.9,8.6c0,3.4,1,6.3,2.9,8.6C305.3,108.5,308,109.7,311.5,109.7z"/>
		<path class="st2" d="M336.4,81.3c0.7,0,1.4,0.1,2,0.4c0.6,0.3,1.2,0.6,1.6,1.1s0.8,1,1.1,1.6c0.3,0.6,0.4,1.3,0.4,2
			c0,0.7-0.1,1.4-0.4,2c-0.3,0.6-0.6,1.1-1.1,1.6s-1,0.8-1.6,1.1c-0.6,0.3-1.3,0.4-2,0.4c-0.7,0-1.4-0.1-2-0.4s-1.1-0.6-1.6-1.1
			s-0.8-1-1.1-1.6c-0.3-0.6-0.4-1.3-0.4-2c0-0.7,0.1-1.4,0.4-2c0.3-0.6,0.6-1.2,1.1-1.6s1-0.8,1.6-1.1
			C335,81.4,335.7,81.3,336.4,81.3z M336.4,90.8c1.2,0,2.2-0.4,3.1-1.3c0.4-0.4,0.7-0.9,0.9-1.4c0.2-0.5,0.3-1.1,0.3-1.7
			c0-0.6-0.1-1.2-0.3-1.7c-0.2-0.5-0.5-1-0.9-1.4c-0.8-0.8-1.9-1.3-3.1-1.3c-1.2,0-2.2,0.4-3.1,1.3c-0.8,0.9-1.3,1.9-1.3,3.1
			c0,0.6,0.1,1.2,0.3,1.7c0.2,0.5,0.5,1,0.9,1.4C334.1,90.3,335.2,90.8,336.4,90.8z M338.9,85.2c0,0.3-0.1,0.6-0.3,0.9
			c-0.2,0.3-0.5,0.5-0.8,0.6c0.6,0.2,0.9,0.6,1,1.3c0,0.2,0,0.4,0,0.5v0.7h-1v-0.6c0-0.4,0-0.7-0.1-0.9c-0.2-0.4-0.5-0.6-1-0.6h-1.4
			v2.1h-1v-5.7h2.4c0.8,0,1.4,0.1,1.8,0.5C338.7,84.3,338.9,84.7,338.9,85.2z M335.2,86.3h1.3c0.4,0,0.7-0.1,1-0.2s0.4-0.4,0.4-0.7
			c0-0.3-0.1-0.5-0.3-0.7c-0.2-0.2-0.6-0.2-1.1-0.2h-1.3V86.3z"/>
	</g>
	<polygon id="XMLID_00000089551089109368631830000002058528861246955669_" class="st2" points="136.3,94.1 169.2,75.1 136.3,56.1 
		103.4,75.1 	"/>
	<polygon id="XMLID_00000005966620480889490890000008739853367215765125_" class="st2" points="133.6,98.8 100.7,79.8 100.7,117.8 
		133.6,136.8 	"/>
	<polygon id="XMLID_00000064323617964077076440000017225214596201243025_" class="st1" points="139,98.8 139,136.8 171.9,117.8 
		171.9,79.8 	"/>
</g>
</svg>
